
<svg xmlns="http://www.w3.org/2000/svg" viewBox="0 0 512 512" width="100%" height="100%" fill="#FF9900">
  <path d="M256 96c-88.4 0-160 71.6-160 160s71.6 160 160 160 160-71.6 160-160-71.6-160-160-160zm0 32c70.7 0 128 57.3 128 128s-57.3 128-128 128-128-57.3-128-128 57.3-128 128-128zm0 32c-53 0-96 43-96 96s43 96 96 96 96-43 96-96-43-96-96-96zm0 32c-35.3 0-64 28.7-64 64s28.7 64 64 64 64-28.7 64-64-28.7-64-64-64zm.2 192L47.7 352.6c5.8 7.9 12 15.4 18.5 22.6 23.4 25.1 51 45.1 81.1 57.8 32.2 14.1 66.5 20.9 102.5 19.9 34.5-1 67.3-9.4 97.7-24.4 27.6-14.8 54.9-35.2 75.4-60.5 11.5-14.1 21.6-29.7 29.8-46.6H383c38.5 0 75-15.1 102.3-42.4l-27.8-26.1c-19.7 19.7-46 30.5-73.8 30.5h-127.2zm44.6-232.9c-16.3-3.4-31.4-5.1-44.8-5.1-7.1 0-14 .4-21 1.1-49.5 6.7-91.6 31.1-125.6 64.8l27.3 26.6c29.1-29 64.5-49.1 106.4-55 5.8-.9 11.8-1.3 19.1-1.3 10.9 0 23.6 1.3 37.6 4.1l1-.4c32.5-12.9 68.6-19.6 107.2-19.6h-17.9c-32.7 0-64.2 5.8-92.4 15.4-14.6 5-28 11-41.1 18.3l44.2 20.9z"/>
</svg>
