
<svg xmlns="http://www.w3.org/2000/svg" viewBox="0 0 512 512" width="100%" height="100%" fill="#3B48CC">
  <path d="M256 30c-34.2 0-66.6 6.88-96.26 19.38C129.5 62.1 102 82.2 79.27 107.3c-22.7 25.1-40.476 54.9-51.57 87.9C16.6 228.1 11 261.4 11 296c0 34.6 5.6 67.9 16.7 100.9 11.09 33 28.87 62.8 51.57 87.9 22.76 25.1 50.23 45.2 80.47 57.9 29.7 12.5 62.1 19.4 96.3 19.4 34.2 0 66.6-6.9 96.3-19.4 30.2-12.7 57.7-32.8 80.4-57.9 22.7-25.1 40.5-54.9 51.6-87.9 11.1-33 16.7-66.3 16.7-100.9 0-34.6-5.6-67.9-16.7-100.8-11.1-33-28.9-62.8-51.6-87.9-22.7-25.1-50.2-45.2-80.4-57.92C322.6 36.88 290.2 30 256 30zm0 35.38c29.5 0 57.7 5.94 83.3 16.8 25.5 10.83 48.3 26.44 67.7 45.82 19.5 19.4 35.1 42.2 45.9 67.7 10.9 25.5 16.8 53.8 16.8 83.3 0 29.5-5.9 57.7-16.8 83.3-10.8 25.5-26.4 48.3-45.9 67.7-19.4 19.4-42.2 35-67.7 45.8-25.6 10.9-53.8 16.8-83.3 16.8-29.5 0-57.7-5.9-83.2-16.8-25.5-10.8-48.4-26.4-67.77-45.8-19.38-19.4-34.99-42.2-45.82-67.7-10.86-25.6-16.8-53.8-16.8-83.3 0-29.5 5.94-57.8 16.8-83.3 10.83-25.5 26.44-48.3 45.82-67.7 19.37-19.38 42.27-34.99 67.77-45.82 25.5-10.86 53.7-16.8 83.2-16.8zm0 44.32c-96.2 0-174.3 78.1-174.3 174.3S159.8 458.3 256 458.3 430.3 380.2 430.3 284 352.2 159.7 256 159.7zm0 42.6c72.7 0 131.7 59 131.7 131.7S328.7 465.7 256 465.7 124.3 406.7 124.3 334s59-131.7 131.7-131.7zm0 21.2c-60.9 0-110.5 49.6-110.5 110.5S195.1 444.5 256 444.5 366.5 394.9 366.5 334 316.9 223.5 256 223.5zm0 54.8c30.8 0 55.7 24.9 55.7 55.7 0 30.8-24.9 55.7-55.7 55.7-30.8 0-55.7-24.9-55.7-55.7 0-30.8 24.9-55.7 55.7-55.7z"/>
</svg>
