
<svg xmlns="http://www.w3.org/2000/svg" viewBox="0 0 512 512" width="100%" height="100%" fill="#999999">
  <path d="M256 96c-24.3 0-44 19.7-44 44s19.7 44 44 44 44-19.7 44-44-19.7-44-44-44zm0 16c15.5 0 28 12.5 28 28s-12.5 28-28 28-28-12.5-28-28 12.5-28 28-28zm-108.7 90.9L96 266.5V329c0 67.4 45.5 125.2 107.6 143.4l52.4 18.4 52.4-18.4c62.1-18.2 107.6-76 107.6-143.4v-62.5l-51.3-63.6-104.4 36.5-112.4-39.2zm51.6 9.7l57.1 19.9 53.2-18.6L361 256c-19.9 11.6-45.6 10-63.9-4-16.7-13.8-20.3-37.9-8.3-56.3-9.9-10.3-23.7-16.7-39.1-16.7s-29.3 6.4-39.1 16.7c12 18.4 8.3 42.5-8.3 56.3-18.3 14-44 15.6-63.9 4l49.5-38.6zm-34.4 10.8c19.1 19.2 50.2 19.2 69.3 0 7.5-7.6 10.8-16.5 10.8-25.8 0-9.3-4.4-18.3-12.1-26l-32.1-8.1-36.8 10.4c-6.6 7.7-10.2 16.6-10.2 25.9 0 8.1 4 16.9 11.1 23.6zm145.9-1.8c19.1 19.2 50.2 19.2 69.3 0 7.1-6.7 11.1-15.5 11.1-23.6 0-9.3-3.6-18.2-10.2-25.9l-36.8-10.4-32.1 8.1c-7.7 7.7-12.1 16.7-12.1 26 0 9.3 3.3 18.2 10.8 25.8zM210 342h92v-18h-92v18z"/>
</svg>
