
<svg xmlns="http://www.w3.org/2000/svg" viewBox="0 0 24 24" width="100%" height="100%" fill="#7AA116">
  <rect width="24" height="24" rx="2" fill="#3F8624"/>
  <path d="M6.5 7C6.22386 7 6 7.22386 6 7.5V16.5C6 16.7761 6.22386 17 6.5 17H17.5C17.7761 17 18 16.7761 18 16.5V7.5C18 7.22386 17.7761 7 17.5 7H6.5Z" fill="white"/>
  <path d="M12 8.5C9.51472 8.5 7.5 10.5147 7.5 13C7.5 15.4853 9.51472 17.5 12 17.5C14.4853 17.5 16.5 15.4853 16.5 13C16.5 10.5147 14.4853 8.5 12 8.5ZM12 9.5C13.933 9.5 15.5 11.067 15.5 13C15.5 14.933 13.933 16.5 12 16.5C10.067 16.5 8.5 14.933 8.5 13C8.5 11.067 10.067 9.5 12 9.5Z" fill="#3F8624"/>
</svg>
